<svg xmlns="http://www.w3.org/2000/svg" viewBox="0 0 500 500"><g id="freepik--background-complete--inject-11"><rect x="364.23" y="39.28" width="89.56" height="129.81" style="fill:#e0e0e0"></rect><rect x="359.74" y="39.28" width="89.56" height="129.81" style="fill:#f5f5f5"></rect><rect x="370.87" y="53.34" width="67.3" height="101.69" style="fill:#fff"></rect><path d="M438.17,155s0-.17,0-.5,0-.81,0-1.44c0-1.28,0-3.15,0-5.58,0-4.87,0-12-.06-20.94,0-17.93-.07-43.33-.11-73.23l.22.22-67.3,0h0l.24-.24c0,38.36,0,73.73-.05,101.69l-.19-.19,49,.1,13.54.05,3.55,0,1.23,0s-.4,0-1.19,0l-3.51,0-13.5.05-49.1.11h-.2V155c0-28,0-63.33-.05-101.69V53.1h.25l67.3,0h.22v.22c0,30-.08,55.41-.11,73.37,0,9,0,16-.06,20.9,0,2.41,0,4.27,0,5.53,0,.62,0,1.09,0,1.42S438.17,155,438.17,155Z" style="fill:#e0e0e0"></path><path d="M449.55,39.28A16,16,0,0,1,448,41.6c-1,1.39-2.52,3.28-4.2,5.33s-3.26,3.86-4.43,5.15a15.93,15.93,0,0,1-2,2,16.68,16.68,0,0,1,1.71-2.24l4.31-5.23,4.31-5.23A16.17,16.17,0,0,1,449.55,39.28Z" style="fill:#e0e0e0"></path><path d="M438.51,154.7a83,83,0,0,0,11.74,14.68" style="fill:#fff"></path><path d="M450.25,169.38a13,13,0,0,1-2.05-1.86,64.21,64.21,0,0,1-4.42-5,65.17,65.17,0,0,1-3.9-5.42,13.4,13.4,0,0,1-1.37-2.41,18.58,18.58,0,0,1,1.65,2.22c1,1.38,2.38,3.28,4,5.3s3.16,3.8,4.3,5.07A19.38,19.38,0,0,1,450.25,169.38Z" style="fill:#e0e0e0"></path><path d="M359.73,169l11.73-14.48" style="fill:#fff"></path><path d="M371.46,154.51a88.57,88.57,0,0,1-5.68,7.39,92.45,92.45,0,0,1-6,7.09,84.57,84.57,0,0,1,5.67-7.39A88.64,88.64,0,0,1,371.46,154.51Z" style="fill:#e0e0e0"></path><path d="M359.74,39.28a84.64,84.64,0,0,1,5.69,6.81,77.84,77.84,0,0,1,5.31,7.11,84.64,84.64,0,0,1-5.69-6.81A77.84,77.84,0,0,1,359.74,39.28Z" style="fill:#e0e0e0"></path><rect x="394.66" y="73.99" width="22.54" height="63.99" style="fill:#e0e0e0"></rect><path d="M264,316.79l4.6-2.31a4.37,4.37,0,0,1,2.05-5.94,4.18,4.18,0,0,1,4.8.57A4.64,4.64,0,0,1,277,313c-.13,1.67-1.26,3.7-4.63,4.7l5.19,10.38,4.55-2.28-3-6.07a10,10,0,0,0,2-11.88c-3.37-6.73-10.19-5.27-12.77-4C266.35,304.87,259.86,308.71,264,316.79Z" style="fill:#e0e0e0"></path><rect x="279.41" y="328.82" width="5.16" height="4.82" transform="translate(-118.4 161.17) rotate(-26.58)" style="fill:#e0e0e0"></rect><path d="M442.79,388.69l4.73,2a4.38,4.38,0,0,1,5.86-2.27,4.18,4.18,0,0,1,2.66,4,4.59,4.59,0,0,1-2,3.68c-1.37,1-3.65,1.43-6.59-.51l-4.59,10.66,4.68,2,2.68-6.24a9.94,9.94,0,0,0,10.39-6.1c3-6.91-2.53-11.19-5.19-12.33C453.42,382.79,446.29,380.31,442.79,388.69Z" style="fill:#f5f5f5"></path><rect x="440.76" y="409.34" width="5.16" height="4.82" transform="translate(198.68 -141.63) rotate(23.26)" style="fill:#f5f5f5"></rect><path d="M463.62,244.33l-6.86-2.56s-2.14,5.76-8.17,3.63a5.9,5.9,0,0,1-4-5.54,6.54,6.54,0,0,1,2.56-5.38c1.88-1.48,5.08-2.27,9.39.26l5.77-15.46-6.78-2.53-3.38,9.06s-10.43-1.09-14.33,9.4c-3.74,10,4.38,15.71,8.23,17.14C449,253.45,459.24,256.47,463.62,244.33Z" style="fill:#e0e0e0"></path><rect x="457.55" y="208.18" width="7.34" height="6.86" transform="translate(819.48 570.98) rotate(-159.56)" style="fill:#e0e0e0"></rect><path d="M185.54,246.59l8.31.44a31.74,31.74,0,1,1-7.62,8.44l0,0Z" style="fill:#fff"></path><path d="M185.54,246.59l.06.6c0,.41.09,1,.16,1.72.13,1.51.32,3.72.56,6.57l-.18-.07h0a.1.1,0,0,1,.14,0,.11.11,0,0,1,0,.13A31.71,31.71,0,0,0,181.71,270a32.39,32.39,0,0,0,.95,10,31.46,31.46,0,0,0,4.8,10.29,32.34,32.34,0,0,0,9.16,8.57,32.94,32.94,0,0,0,6,2.94,31.65,31.65,0,0,0,21.06,0,12.23,12.23,0,0,0,1.73-.69l1.72-.77c1.12-.57,2.19-1.24,3.29-1.87,1-.78,2.09-1.47,3.05-2.32l1.43-1.3c.23-.22.48-.43.7-.66l.65-.72a32.05,32.05,0,0,0,7.32-13.38,31.38,31.38,0,0,0-5.42-27,32.17,32.17,0,0,0-9.51-8.32,31.61,31.61,0,0,0-34.75,2.34.08.08,0,0,1-.07,0l-6.13-.38-1.61-.11c-.37,0-.56,0-.56,0h.52l1.59.06,6.2.27-.06,0a31.53,31.53,0,0,1,14-6.19,31.91,31.91,0,0,1,21.12,3.63,32.54,32.54,0,0,1,9.67,8.42,31.76,31.76,0,0,1,5.55,27.37,32.48,32.48,0,0,1-7.44,13.6l-.65.74-.72.67-1.45,1.32c-1,.86-2.08,1.57-3.1,2.35s-2.21,1.33-3.35,1.91l-1.74.77a13.28,13.28,0,0,1-1.77.7,32.16,32.16,0,0,1-21.39,0,33.66,33.66,0,0,1-6.11-3,32.93,32.93,0,0,1-9.26-8.71,32,32,0,0,1-4.83-10.46,32.42,32.42,0,0,1-.9-10.09,31.67,31.67,0,0,1,4.76-14.56l.16.13h0a.11.11,0,0,1-.15,0,.09.09,0,0,1,0-.06c-.19-2.89-.34-5.12-.45-6.65,0-.73-.08-1.29-.1-1.7S185.54,246.59,185.54,246.59Z" style="fill:#e0e0e0"></path><path d="M204.39,273.19a3.78,3.78,0,1,1-3.78-3.78A3.78,3.78,0,0,1,204.39,273.19Z" style="fill:#e0e0e0"></path><path d="M217.12,273.19a3.78,3.78,0,1,1-3.78-3.78A3.78,3.78,0,0,1,217.12,273.19Z" style="fill:#e0e0e0"></path><path d="M229.52,273.19a3.78,3.78,0,1,1-3.78-3.78A3.78,3.78,0,0,1,229.52,273.19Z" style="fill:#e0e0e0"></path><path d="M164.17,69.65l-.63-4.31a16.62,16.62,0,1,1,5.11,3h0Z" style="fill:#fff"></path><path d="M164.17,69.65l.3-.1.87-.27,3.29-1,0,.19h0a.11.11,0,0,1,0-.15.11.11,0,0,1,.13,0,16.66,16.66,0,0,0,7.86.85,16.43,16.43,0,0,0,14.19-17.5,16.67,16.67,0,0,0-2.27-7.12A15.77,15.77,0,0,0,183,39a16.56,16.56,0,0,0-7.54-2.38,16.31,16.31,0,0,0-13.19,5.48,16.74,16.74,0,0,0-3.29,5.68,16.46,16.46,0,0,0,.21,11,16.63,16.63,0,0,0,4.46,6.51s0,0,0,.06c.16,1.35.3,2.41.39,3.17,0,.35.08.63.1.85s0,.3,0,.3,0-.08-.06-.26-.08-.48-.14-.81c-.13-.77-.3-1.85-.53-3.22l0,.06a16.57,16.57,0,0,1-4.64-6.54,16.78,16.78,0,0,1-.31-11.27,17.17,17.17,0,0,1,3.35-5.86,16.72,16.72,0,0,1,13.57-5.67,17,17,0,0,1,7.79,2.45,16.31,16.31,0,0,1,5.68,5.73,17.13,17.13,0,0,1,2.31,7.35,16.17,16.17,0,0,1-1.06,7.17,17.17,17.17,0,0,1-3.55,5.67,16.74,16.74,0,0,1-10,5,16.52,16.52,0,0,1-8-1l.1-.18h0a.11.11,0,0,1,0,.15l-.06,0-3.39.88-.86.22Z" style="fill:#e0e0e0"></path><path d="M179.59,52.77a2,2,0,1,1,2,2A2,2,0,0,1,179.59,52.77Z" style="fill:#e0e0e0"></path><path d="M172.93,52.77a2,2,0,1,1,2,2A2,2,0,0,1,172.93,52.77Z" style="fill:#e0e0e0"></path><path d="M166.45,52.77a2,2,0,1,1,2,2A2,2,0,0,1,166.45,52.77Z" style="fill:#e0e0e0"></path><path d="M240.67,390.12c4.36-2.25,9.5-2.54,14.35-1.74,2.6.43,5.31,1.21,7.08,3.17s2.11,5.39.08,7.07a6.84,6.84,0,0,1-4.47,1.14c-3.79-.05-8-.72-11,1.57-1.73,1.3-2.88,3.46-5,4.1a4.88,4.88,0,0,1-5.38-2.39,8.35,8.35,0,0,1-.61-6.16A9.43,9.43,0,0,1,240.67,390.12Z" style="fill:#ebebeb"></path><path d="M230.67,370.82c2.67,3.81,7.85,2.55,10.26.23s3.42-5.7,4.35-8.92c2.11-7.35,4.24-15.05,2.67-22.54a12.55,12.55,0,0,0-2.88-6.12,6.55,6.55,0,0,0-6.2-2.07c-2.61.7-4.24,3.26-5.41,5.69a53.72,53.72,0,0,0-5.31,23.06c0,3.71.42,7.61,2.52,10.67" style="fill:#ebebeb"></path><path d="M223.34,376.29c2.9-3.44,3.45-8.45,2.16-12.76a24.57,24.57,0,0,0-7.56-11,40.49,40.49,0,0,0-13.54-8,14.37,14.37,0,0,0-6.09-1,6.41,6.41,0,0,0-5.11,3.09c-1.42,2.72,0,6,1.42,8.7a103.89,103.89,0,0,0,8.89,13.54c2.67,3.44,5.72,6.83,9.78,8.38s8.28,1.37,10.44-1.45" style="fill:#ebebeb"></path><path d="M230.49,428.32a8.31,8.31,0,0,0,.24-1.73c.12-1.26.28-2.84.46-4.73a68.85,68.85,0,0,1,1.06-6.93,54,54,0,0,1,2.52-8.18,30.4,30.4,0,0,1,4.18-7.41,15.66,15.66,0,0,1,5.28-4.39,15.05,15.05,0,0,1,4.45-1.39,8,8,0,0,0,1.73-.25,8.52,8.52,0,0,0-1.76,0,13.55,13.55,0,0,0-4.64,1.2,15.6,15.6,0,0,0-5.57,4.43,29.85,29.85,0,0,0-4.33,7.56,49,49,0,0,0-2.5,8.31,56.32,56.32,0,0,0-.92,7c-.15,2-.21,3.63-.24,4.75A8.2,8.2,0,0,0,230.49,428.32Z" style="fill:#e0e0e0"></path><path d="M230.81,424.68a3.07,3.07,0,0,0,.05-.8c0-.6,0-1.37,0-2.3,0-2,0-4.88.11-8.44.17-7.13.79-14.8,2-25.62,1.12-10.17,2.63-22,4.22-29.7.34-1.75.69-3.33,1-4.7s.57-2.58.82-3.54l.54-2.24a2.73,2.73,0,0,0,.14-.79,3.44,3.44,0,0,0-.28.75c-.17.58-.39,1.31-.66,2.21s-.6,2.14-.95,3.51-.74,3-1.11,4.69a260.14,260.14,0,0,0-4.44,27.56c-1.19,10.84-1.72,20.71-1.77,27.86,0,3.57,0,6.46.13,8.46,0,.93.1,1.69.14,2.3A4.12,4.12,0,0,0,230.81,424.68Z" style="fill:#e0e0e0"></path><path d="M230.86,405.65a15.16,15.16,0,0,0,0-2.4c-.08-1.54-.3-3.77-.73-6.51a85.87,85.87,0,0,0-2.12-9.47,75.47,75.47,0,0,0-4-11.21,59.74,59.74,0,0,0-11.64-18.13,30.52,30.52,0,0,0-2.73-2.54c-.42-.36-.8-.71-1.17-1l-1.07-.73a14.44,14.44,0,0,0-2-1.3c-.11.16,2.87,1.91,6.63,5.91a63.22,63.22,0,0,1,11.34,18.06,88.1,88.1,0,0,1,4,11.11,95.42,95.42,0,0,1,2.25,9.38c.5,2.71.78,4.91,1,6.44A15.46,15.46,0,0,0,230.86,405.65Z" style="fill:#e0e0e0"></path><polygon points="212.46 439.23 214.37 465.35 247.94 465.35 249.85 439.23 212.46 439.23" style="fill:#e0e0e0"></polygon><rect x="209.22" y="428.93" width="44.63" height="10.3" style="fill:#e0e0e0"></rect><polygon points="209.22 464.35 209.22 467.21 211.32 467.21 253.11 467.21 253.11 464.35 209.22 464.35" style="fill:#ebebeb"></polygon><polygon points="213.37 472.23 211.32 467.21 251.51 467.21 249.12 472.23 213.37 472.23" style="fill:#e0e0e0"></polygon><path d="M249.22,447.76s0,.09-.15.24l-.51.67-1.95,2.5-.09.11-.08-.11-4.81-6.65h.28l-4.73,6.7-.15.21-.16-.2c-1.75-2.07-3.65-4.33-5.61-6.67h.32l-.31.39-5,6.29-.17.21-.16-.22-4.73-6.69h.28l-5.83,6.64-.1.12-.08-.14c-.77-1.29-1.38-2.32-1.83-3.06l-.47-.82A1.08,1.08,0,0,1,213,447a1.23,1.23,0,0,1,.2.26l.51.79,1.92,3-.18,0,5.73-6.72.15-.17.13.18,4.77,6.67h-.32c1.59-2,3.27-4.11,5-6.3.11-.13.22-.26.31-.39l.16-.2.17.2,5.59,6.69h-.31l4.77-6.66.14-.2.14.2,4.7,6.71h-.17l2-2.44L249,448A2.25,2.25,0,0,1,249.22,447.76Z" style="fill:#f5f5f5"></path><path d="M250.31,439.05c0,.12-8.41.21-18.78.21s-18.79-.09-18.79-.21,8.41-.21,18.79-.21S250.31,438.94,250.31,439.05Z" style="fill:#f5f5f5"></path><path d="M252,467.49c0,.12-9.14.21-20.42.21s-20.41-.09-20.41-.21,9.14-.21,20.41-.21S252,467.38,252,467.49Z" style="fill:#f5f5f5"></path><path d="M52.81,254s-7.92-.57-7.19,17.19,2.54,27.23,2.54,27.23-.23,3.94-3.28,3.17-8.79-4.61-11.63-1.75-1.89,7.53,2,12.9,12,17.45,12.74,18.54,1,3.09-1.16,2.9S30.08,329,28.14,336.1,39.53,356.34,41,357.81s1.51,2.4.93,3.28-5.33-1.23-9.54-2.47-9.31-1.93-10.08,2.24,5.09,16.37,27.06,29.2l10.57,5.28,10-6.39c20.58-15,25.2-27.69,24-31.76s-6.19-2.87-10.25-1.22-8.58,4.25-9.25,3.42-.68-1.76.6-3.36,13.21-16,10.58-22.88-16.66-.45-18.79,0-2-1.63-1.45-2.77,7.48-14,10.82-19.72,3.93-10.37.71-13-8.43,1.83-11.39,2.9-3.59-2.82-3.59-2.82.86-9.6-.19-27.35S52.65,254,52.65,254" style="fill:#ebebeb"></path><path d="M53.43,269.91s0,.12,0,.37.05.63.09,1.09c.07,1,.16,2.39.28,4.2.25,3.64.56,8.91.92,15.43.72,13,1.57,31.06,2.44,51s1.67,37.93,2.32,51c.33,6.5.6,11.77.79,15.44.09,1.81.16,3.22.2,4.2,0,.46,0,.83.05,1.09a3.39,3.39,0,0,1,0,.37s0-.12,0-.37-.05-.62-.09-1.09c-.06-1-.16-2.39-.28-4.19-.24-3.65-.56-8.92-.92-15.44-.72-13-1.57-31.05-2.44-51s-1.67-37.92-2.32-51c-.33-6.51-.6-11.78-.78-15.45-.09-1.8-.16-3.22-.21-4.19,0-.47,0-.83,0-1.1Z" style="fill:#e0e0e0"></path><path d="M41.06,305.53a3.41,3.41,0,0,1,.66.55c.41.37,1,.92,1.68,1.61,1.39,1.38,3.27,3.34,5.3,5.54l5.17,5.66,1.57,1.7a3.41,3.41,0,0,1,.55.66,3.81,3.81,0,0,1-.66-.55c-.41-.37-1-.92-1.67-1.62-1.38-1.39-3.23-3.38-5.26-5.58l-5.21-5.61-1.58-1.7A3.81,3.81,0,0,1,41.06,305.53Z" style="fill:#e0e0e0"></path><path d="M57,320.9c-.08-.08,3.79-4.13,8.63-9s8.84-8.84,8.92-8.76-3.78,4.13-8.63,9S57.12,321,57,320.9Z" style="fill:#e0e0e0"></path><path d="M57,351.52a3.47,3.47,0,0,1,.73-.46l2.07-1.16c1.74-1,4.15-2.35,6.75-3.94s4.91-3.12,6.57-4.23l2-1.32a4.49,4.49,0,0,1,.75-.44,3.45,3.45,0,0,1-.65.57c-.45.35-1.09.84-1.91,1.42-1.62,1.18-3.91,2.74-6.52,4.34s-5,2.93-6.82,3.85c-.9.45-1.62.81-2.14,1.05A3.22,3.22,0,0,1,57,351.52Z" style="fill:#e0e0e0"></path><path d="M39.49,340.81a3,3,0,0,1,.73.34l1.91,1.06c1.61.92,3.82,2.2,6.25,3.65s4.61,2.77,6.18,3.74c.79.49,1.42.89,1.85,1.18s.67.45.65.48a3.64,3.64,0,0,1-.73-.34c-.46-.25-1.11-.61-1.91-1.07-1.61-.91-3.82-2.2-6.25-3.64s-4.61-2.77-6.18-3.75c-.79-.49-1.42-.89-1.85-1.18A2.78,2.78,0,0,1,39.49,340.81Z" style="fill:#e0e0e0"></path><path d="M36,367.84a5.23,5.23,0,0,1,.93.45l2.46,1.36c2.07,1.16,4.91,2.79,8,4.6s6,3.49,8,4.72l2.4,1.46a6,6,0,0,1,.85.59,4.46,4.46,0,0,1-.93-.45l-2.46-1.36c-2.07-1.16-4.91-2.78-8-4.61s-6-3.48-8-4.71l-2.4-1.46A6,6,0,0,1,36,367.84Z" style="fill:#e0e0e0"></path><path d="M58.21,380.55a6.93,6.93,0,0,1,.92-.61l2.57-1.57c2.17-1.32,5.16-3.15,8.4-5.27s6.14-4.1,8.22-5.55l2.47-1.71a5.75,5.75,0,0,1,.94-.6,6,6,0,0,1-.84.72c-.56.44-1.38,1.07-2.4,1.82-2,1.52-4.91,3.54-8.17,5.66s-6.26,3.92-8.47,5.18c-1.11.63-2,1.12-2.64,1.45A4.56,4.56,0,0,1,58.21,380.55Z" style="fill:#e0e0e0"></path><polygon points="75.18 399.71 45.94 399.71 49.45 471.95 72.28 471.95 75.18 399.71" style="fill:#ebebeb"></polygon></g><g id="freepik--Floor--inject-11"><path d="M454.17,471.92c0,.14-93.29.26-208.34.26s-208.36-.12-208.36-.26,93.27-.26,208.36-.26S454.17,471.77,454.17,471.92Z" style="fill:#263238"></path></g><g id="freepik--speech-bubbles-2--inject-11"><path d="M398,238l5.18-2.59a22.13,22.13,0,1,0-7.22-3.27h0Z" style="fill:#fff"></path><path d="M398,238a2.17,2.17,0,0,1-.15-.36c-.1-.27-.23-.63-.41-1.1-.37-1-.9-2.48-1.59-4.36a.11.11,0,0,1,.07-.14H396l-.1.19a22,22,0,0,1-7.12-8,23,23,0,0,1-2.25-6.7,22.24,22.24,0,0,1,.16-8,22.89,22.89,0,0,1,3.48-8.17,21.87,21.87,0,0,1,7-6.57,22.65,22.65,0,0,1,9.75-3.05,22.38,22.38,0,0,1,19.1,8.46,22.76,22.76,0,0,1,4.32,9.36,21.77,21.77,0,0,1-.23,9.69,22.75,22.75,0,0,1-3.82,8.09,22.36,22.36,0,0,1-5.95,5.48l-1.64.92c-.54.29-1.11.51-1.65.75a20,20,0,0,1-3.25,1.08,21.87,21.87,0,0,1-10.65-.08h.07l-3.9,1.88-1,.48L398,238l.35-.19c.24-.14.57-.31,1-.53l3.79-2h.07a22,22,0,0,0,10.52-.06,19.35,19.35,0,0,0,3.19-1.08c.53-.25,1.09-.46,1.62-.75l1.61-.92a21.87,21.87,0,0,0,5.8-5.41,22.27,22.27,0,0,0,3.71-7.94,21.29,21.29,0,0,0,.2-9.48,22.23,22.23,0,0,0-4.24-9.15,21.89,21.89,0,0,0-18.65-8.26,22.43,22.43,0,0,0-9.54,3,21.33,21.33,0,0,0-6.86,6.41,22.47,22.47,0,0,0-3.45,8,21.89,21.89,0,0,0-.19,7.88,22.36,22.36,0,0,0,2.16,6.6,22.06,22.06,0,0,0,6.94,7.95.09.09,0,0,1,0,.14.1.1,0,0,1-.12,0h0l.13-.13c.63,1.87,1.11,3.32,1.45,4.34.16.48.28.86.38,1.14S398,238,398,238Z" style="fill:#263238"></path><path d="M403.9,215a2.42,2.42,0,1,1-2.41-2.42A2.41,2.41,0,0,1,403.9,215Z" style="fill:#263238"></path><path d="M412,215a2.42,2.42,0,1,1-2.42-2.42A2.41,2.41,0,0,1,412,215Z" style="fill:#263238"></path><path d="M419.94,215a2.42,2.42,0,1,1-2.41-2.42A2.41,2.41,0,0,1,419.94,215Z" style="fill:#263238"></path><circle cx="451.29" cy="311.96" r="25.3" transform="translate(-93.8 374.13) rotate(-41.16)" style="fill:#fff"></circle><path d="M432.66,329.08a2.13,2.13,0,0,1,.31.27l.87.82.64.62c.25.21.54.42.84.66a18.26,18.26,0,0,0,2.15,1.56,24.24,24.24,0,0,0,6.6,3,25.11,25.11,0,0,0,29.44-12.51,27.39,27.39,0,0,0,1.43-3.27,25.77,25.77,0,0,0,.93-3.53,30.08,30.08,0,0,0,.46-3.71,28.63,28.63,0,0,0-.16-3.8,24.25,24.25,0,0,0-2-7.5,24.91,24.91,0,0,0-10.69-11.65,24.47,24.47,0,0,0-7.31-2.66,23,23,0,0,0-7.5-.34,26.54,26.54,0,0,0-3.6.63,25.11,25.11,0,0,0-18.45,19.84,25.28,25.28,0,0,0,.1,9.58,24.18,24.18,0,0,0,2.46,6.83,18.27,18.27,0,0,0,1.37,2.28c.21.32.4.62.59.88s.39.49.56.69c.31.4.56.71.75.94l.24.34a3.55,3.55,0,0,1-.28-.3c-.2-.22-.46-.53-.79-.91l-.58-.68c-.2-.26-.39-.56-.61-.88A17.69,17.69,0,0,1,429,324a24,24,0,0,1-2.56-6.87,25.4,25.4,0,0,1,4.46-20.47,25.49,25.49,0,0,1,10.6-8.28,27.31,27.31,0,0,1,3.44-1.18,26.05,26.05,0,0,1,3.67-.64,23.45,23.45,0,0,1,7.64.33,24.54,24.54,0,0,1,7.46,2.71,25.34,25.34,0,0,1,10.9,11.88,24.86,24.86,0,0,1,2.07,7.65,23.64,23.64,0,0,1-.32,7.65,28.85,28.85,0,0,1-.95,3.6,28.32,28.32,0,0,1-1.47,3.32A25.41,25.41,0,0,1,444,336.31a23.77,23.77,0,0,1-6.62-3.14,17.41,17.41,0,0,1-2.15-1.6c-.29-.25-.58-.47-.82-.69l-.63-.63-.84-.87A1.87,1.87,0,0,1,432.66,329.08Z" style="fill:#263238"></path><path d="M417.2,300.88a3.54,3.54,0,1,1,5,.22A3.53,3.53,0,0,1,417.2,300.88Z" style="fill:#fff"></path><path d="M417.2,300.88s.25.2.72.48a3.5,3.5,0,0,0,2.2.47,3.32,3.32,0,1,0-3.61-3.93,3.51,3.51,0,0,0,.28,2.23c.24.49.45.72.41.75s-.28-.17-.58-.66a3.42,3.42,0,0,1-.46-2.38,3.69,3.69,0,0,1,2.2-2.82,3.75,3.75,0,0,1,4.78,5.21,3.68,3.68,0,0,1-3,1.95,3.47,3.47,0,0,1-2.33-.65A1.78,1.78,0,0,1,417.2,300.88Z" style="fill:#263238"></path><path d="M444.31,307H448a3.17,3.17,0,0,1,3.25-3.18,3,3,0,0,1,2.91,1.92,3.34,3.34,0,0,1-.27,3c-.63,1-2,2-4.51,1.54v8.37h3.67v-4.9a7.17,7.17,0,0,0,5.15-7c0-5.43-4.87-6.69-7-6.69C449.67,300.06,444.24,300.44,444.31,307Z" style="fill:#024522"></path><rect x="449.39" y="320.39" width="3.73" height="3.48" style="fill:#024522"></rect></g><g id="freepik--speech-bubbles-1--inject-11"><path d="M82.67,96.43l-7.5,1.75a29.41,29.41,0,1,1,4.6-9.47h0Z" style="fill:#fff"></path><path d="M82.67,96.43s-.08-.18-.21-.52l-.58-1.48-2.2-5.69h.19v0a.11.11,0,0,1-.15,0,.11.11,0,0,1,0-.12,29.22,29.22,0,0,0,.37-14A30.14,30.14,0,0,0,76.65,66a29.29,29.29,0,0,0-6.91-7.92A29.89,29.89,0,0,0,59.4,52.86a28.44,28.44,0,0,0-12.5-.74,29.73,29.73,0,0,0-12.3,5.09,28.46,28.46,0,0,0-9,10.62,29.6,29.6,0,0,0-2.42,6.75c-.2,1.17-.43,2.33-.54,3.5,0,.58-.07,1.17-.1,1.75l-.05.88,0,.87a29.74,29.74,0,0,0,3.45,13,28.26,28.26,0,0,0,8.29,9.54,29.69,29.69,0,0,0,10.57,5,29.38,29.38,0,0,0,10.56.6l2.43-.43c.79-.16,1.54-.42,2.29-.61A26,26,0,0,0,64.28,107a29.29,29.29,0,0,0,10.81-8.91.07.07,0,0,1,.06,0l5.55-1.23,1.46-.32.51-.1-.47.13-1.42.35-5.59,1.37.06,0a29.15,29.15,0,0,1-10.82,9.09A26.59,26.59,0,0,1,60.2,109c-.76.2-1.52.47-2.32.63l-2.46.45a29.49,29.49,0,0,1-10.71-.56,30.06,30.06,0,0,1-10.75-5,28.79,28.79,0,0,1-8.45-9.68A30.17,30.17,0,0,1,22,81.59l0-.89,0-.89.1-1.78c.12-1.19.34-2.37.55-3.56a30.73,30.73,0,0,1,2.46-6.88,29,29,0,0,1,9.2-10.8,30,30,0,0,1,12.52-5.16,28.92,28.92,0,0,1,12.71.77A30.17,30.17,0,0,1,70,57.77a29.53,29.53,0,0,1,7,8.06,30.1,30.1,0,0,1,3.39,8.74,29.27,29.27,0,0,1-.49,14.17l-.2-.08v0a.11.11,0,0,1,.15,0,.1.1,0,0,1,0,0c.91,2.51,1.62,4.46,2.1,5.8.23.63.4,1.13.53,1.48Z" style="fill:#263238"></path><polygon points="39.39 81.28 43 77.39 50.48 83.55 61.86 70.8 65.49 74.42 50.22 90.81 39.39 81.28" style="fill:#024522"></polygon><path d="M174.46,94.18l7.24,16.58c-3.84,23.18-.78,55.52,10.35,78.58,26.28,54.37,90.83,80.3,147.46,59.33A118.33,118.33,0,0,0,404.92,85.93C378.92,32.21,315.57,6.19,259.29,26c-27.94,9.85-53.16,38.67-66.73,62.2h0Z" style="fill:#fff"></path><path d="M174.46,94.18l18.08-6,0,0a175.17,175.17,0,0,1,32.23-40.38,142.2,142.2,0,0,1,13.91-11.16,95,95,0,0,1,17.15-9.43,114.47,114.47,0,0,1,43-8,119.78,119.78,0,0,1,24,2.58,121.17,121.17,0,0,1,24.25,7.93,116.82,116.82,0,0,1,51.54,44.45c1.35,2,2.49,4.15,3.72,6.24.6,1.06,1.12,2.16,1.69,3.24s1.14,2.17,1.62,3.3A121.89,121.89,0,0,1,415,115.25a119,119,0,0,1,1.87,30.53,121.3,121.3,0,0,1-6.25,30.66l-1.39,3.74-.7,1.86-.79,1.82-1.58,3.64-1.75,3.55-.87,1.77c-.31.58-.64,1.15-1,1.72L400.61,198c-.67,1.12-1.38,2.22-2.07,3.33s-1.38,2.22-2.15,3.27a117,117,0,0,1-20.52,23,118.82,118.82,0,0,1-25,16.51,122.17,122.17,0,0,1-27.44,9.54,120,120,0,0,1-27.89,2.51,121.4,121.4,0,0,1-26.6-3.82,123.92,123.92,0,0,1-24-9.06,118.93,118.93,0,0,1-20.44-13.1,116.79,116.79,0,0,1-28.65-33.23,111.47,111.47,0,0,1-12.86-35,155.7,155.7,0,0,1-3-29.71,126.37,126.37,0,0,1,1.59-21.45v0c-4.86-11.27-7-16.13-7.17-16.61.22.48,2.35,5.32,7.31,16.55v0a128.11,128.11,0,0,0-1.51,21.42,155.62,155.62,0,0,0,3.06,29.65,111.16,111.16,0,0,0,12.88,34.86,116.22,116.22,0,0,0,28.59,33.08,118.83,118.83,0,0,0,20.37,13,124.19,124.19,0,0,0,23.89,9,116.86,116.86,0,0,0,81.59-8.24,118.29,118.29,0,0,0,24.9-16.45A116.9,116.9,0,0,0,396,204.29c.77-1,1.45-2.16,2.14-3.26s1.39-2.2,2.06-3.31l1.91-3.42c.32-.58.65-1.14,1-1.72l.87-1.76,1.74-3.54,1.57-3.62.79-1.81.69-1.86,1.39-3.72a120.27,120.27,0,0,0,6.22-30.53,118,118,0,0,0-1.86-30.39,122.16,122.16,0,0,0-9.23-28.18c-.48-1.12-1.07-2.19-1.62-3.28s-1.09-2.17-1.68-3.22c-1.23-2.09-2.36-4.23-3.7-6.22a115.54,115.54,0,0,0-8.35-11.58,118.83,118.83,0,0,0-43-32.72,120.9,120.9,0,0,0-24.15-7.92,119.67,119.67,0,0,0-23.95-2.59,114.15,114.15,0,0,0-42.88,7.93,94.68,94.68,0,0,0-17.1,9.36A143,143,0,0,0,224.92,48a176.58,176.58,0,0,0-32.29,40.24.09.09,0,0,1,0,0Z" style="fill:#263238"></path><circle cx="265.26" cy="139.07" r="8.76" style="fill:#263238"></circle><circle cx="294.76" cy="139.07" r="8.76" style="fill:#263238"></circle><circle cx="323.49" cy="139.07" r="8.76" style="fill:#263238"></circle></g><g id="freepik--character-2--inject-11"><path d="M336.5,323.68l11.95-24.88c8.09-19.8,15.37-43.55,20.43-49,9.34-10.15,26.45-6.19,26.45-6.19,22.58,6.6,20.23,25,16.73,41.19-.6,2.75-1.21,7.8-1.79,13.69-.9,12.38-1.07,25.37,4.25,36a21.39,21.39,0,0,1,1.74,13.35c-.85,4.46-4.95,8.68-9.4,7.82a10.38,10.38,0,0,1-7.22,14.72c-4.35.91-8.74-1-12.7-3s-8-4.3-10.25-8.07-2.44-8.46-2.23-12.87a101.52,101.52,0,0,1,2-15.83Z" style="fill:#263238"></path><path d="M392.27,248.86l2-.45,10.33,13.64a4.41,4.41,0,0,1,1.38,5.82l-29.24,44.39c-1.79,3-1.36,5.16-4.62,6.47L350,327.24c-7.8,3.15.19-9.28.53-17.69,0-.59,2.06-1.61,2.17-2s.21-.77.39-1.12c1.73-3.81,3.56-6.91,3.56-6.91,2.1-4.07,3-5.72,3-5.69s-7.76-5.95-3.61-18c2.06-6,6.66-13.19,11.29-20.21C373.73,245.94,384.26,244.05,392.27,248.86Z" style="fill:#ffbf9d"></path><path d="M378.64,272.9a1.61,1.61,0,0,0,.6,2.17,1.56,1.56,0,0,0,2.16-.5,1.62,1.62,0,0,0-.61-2.17A1.53,1.53,0,0,0,378.64,272.9Z" style="fill:#263238"></path><path d="M365.13,264.39a1.6,1.6,0,0,0,.61,2.16,1.54,1.54,0,0,0,2.15-.5,1.62,1.62,0,0,0-.61-2.17A1.54,1.54,0,0,0,365.13,264.39Z" style="fill:#263238"></path><path d="M366.76,259.88c.08.28,1.59.06,3.12.88s2.25,2.18,2.51,2.09.13-.48-.17-1.09a4.45,4.45,0,0,0-1.89-1.9,4.26,4.26,0,0,0-2.61-.47C367.06,259.5,366.72,259.75,366.76,259.88Z" style="fill:#263238"></path><path d="M382.06,268.55c.11.27,1.59-.11,3.19.55s2.46,1.95,2.72,1.82.07-.48-.29-1.06a4.42,4.42,0,0,0-2.08-1.7A4.26,4.26,0,0,0,383,268C382.32,268.14,382,268.43,382.06,268.55Z" style="fill:#263238"></path><path d="M370.37,276.28a10.82,10.82,0,0,0-2.25-1.78c-.37-.25-.7-.52-.62-.82s.45-.67.88-1l2.74-2.36c3.87-3.39,6.9-6.26,6.76-6.42s-3.39,2.47-7.26,5.86l-2.7,2.41a2.49,2.49,0,0,0-1,1.43,1.09,1.09,0,0,0,.34.91,3.16,3.16,0,0,0,.61.45A11.77,11.77,0,0,0,370.37,276.28Z" style="fill:#263238"></path><path d="M359.65,293.86a32,32,0,0,0,17,3.95s-7.84,5.71-18.41-1.25Z" style="fill:#ff9a6c"></path><path d="M382.72,266c.07.49,1.82.61,3.77,1.24s3.47,1.5,3.81,1.13c.16-.17,0-.66-.6-1.24a6.6,6.6,0,0,0-2.68-1.57,6.49,6.49,0,0,0-3.1-.24C383.13,265.42,382.69,265.71,382.72,266Z" style="fill:#263238"></path><path d="M371.78,252.72c.06.54.39.52,1.78,1.52s3.45,2.59,4,2.45c.23-.07.28-.53,0-1.2a5.46,5.46,0,0,0-1.91-2.2,5.53,5.53,0,0,0-2.71-1C372.16,252.26,371.76,252.47,371.78,252.72Z" style="fill:#263238"></path><path d="M394.36,286.64s-7.67-1.6-6.22-24.06A60.74,60.74,0,0,1,391.79,247l2.86.71s12.5,13.24,12.64,13.58-.86,10.05-.86,10.05Z" style="fill:#263238"></path><path d="M392.9,284.82c.45-.83,2.44-2.27,3.33-2,2.36.83,6.2,3.1,3.29,8.66-4,7.6-10.8,2-10.7,1.81S391.38,287.67,392.9,284.82Z" style="fill:#ffbf9d"></path><path d="M392.66,291.66s.08.16.25.38a1.51,1.51,0,0,0,1,.54c1,.12,2.3-.8,3.06-2.15a5,5,0,0,0,.62-2.09,1.71,1.71,0,0,0-.47-1.54.77.77,0,0,0-1-.05c-.21.16-.24.34-.29.33s-.1-.21.13-.49a.9.9,0,0,1,.55-.32,1.12,1.12,0,0,1,.83.19,2.1,2.1,0,0,1,.77,1.9,5,5,0,0,1-.65,2.36c-.85,1.51-2.39,2.53-3.65,2.27a1.61,1.61,0,0,1-1.11-.83C392.57,291.85,392.62,291.66,392.66,291.66Z" style="fill:#ff9a6c"></path><path d="M370.6,282.78a.56.56,0,0,0-.12-.38,4.77,4.77,0,0,0-2.11-1.9h-.44a2.18,2.18,0,0,0-.09,2.44,2.13,2.13,0,0,0,2,.47,1.26,1.26,0,0,0,.47-.14A.69.69,0,0,0,370.6,282.78Z" style="fill:#ff9a6c"></path><path d="M368.73,283.41c0-.07.27-.05.66-.08s1-.21,1.07-.69v.11a2.93,2.93,0,0,0-.35-.74,3,3,0,0,0-1.66-1.22c-.53-.16-.89-.14-.9-.22s.35-.22,1-.14a2.92,2.92,0,0,1,2,1.29,3.18,3.18,0,0,1,.4.89l0,.07v0a1.2,1.2,0,0,1-.76.83,1.69,1.69,0,0,1-.8.09C369,283.59,368.72,283.46,368.73,283.41Z" style="fill:#263238"></path><path d="M392.57,295.83a2.2,2.2,0,1,1-4.1-1.61,2.2,2.2,0,0,1,4.1,1.61Z" style="fill:#455a64"></path><path d="M432.32,269a10.39,10.39,0,0,0-8.09-7,10.93,10.93,0,0,0-10,3.67l-9.06,19.53a3.91,3.91,0,0,0,6.71-2.79,4.91,4.91,0,0,0,3.81,4,4.43,4.43,0,0,0,4.79-2.54,4.14,4.14,0,0,0-.93-4.37,8.73,8.73,0,0,0,9.54-.4A9.45,9.45,0,0,0,432.32,269Z" style="fill:#263238"></path><path d="M410.37,282.07a2,2,0,0,1-.45.07,8.52,8.52,0,0,1-1.32.08,15.71,15.71,0,0,1-4.8-.7,19.48,19.48,0,0,1-6.37-3.35,20.76,20.76,0,0,1-5.6-6.8,23.5,23.5,0,0,1-2.34-8.49,26.75,26.75,0,0,1,.37-7.19,27.27,27.27,0,0,1,1.29-4.67c.19-.54.39-.94.5-1.22a1.84,1.84,0,0,1,.22-.41,15.14,15.14,0,0,1-.53,1.7,32.29,32.29,0,0,0-1.11,4.66,27.7,27.7,0,0,0-.26,7.08,23.57,23.57,0,0,0,2.33,8.31,20.77,20.77,0,0,0,5.43,6.66,19.72,19.72,0,0,0,6.18,3.37A21.16,21.16,0,0,0,410.37,282.07Z" style="fill:#455a64"></path><path d="M409.67,284.72s-.38.45-1.18.9a9.17,9.17,0,0,1-6.94.69,3,3,0,0,1-1.33-.64,12.35,12.35,0,0,0,9.45-.95Z" style="fill:#455a64"></path><path d="M411.83,284.91a21.68,21.68,0,0,1,.53-2.92c.36-1.79.82-4.28,1.18-7s.57-5.28.69-7.11a21.45,21.45,0,0,1,.24-3,13.4,13.4,0,0,1,.12,3,61.17,61.17,0,0,1-.53,7.17,64.09,64.09,0,0,1-1.34,7.05A14.86,14.86,0,0,1,411.83,284.91Z" style="fill:#455a64"></path><path d="M386.65,308.21s9.72,1.11,12,11.08c1.32,5.92-7.65,43.21-7.65,43.21l10.05.89,2.7,10.46s-26.88,16.08-30.2,13-5.12-1.53-5.62-7.91.1-24.25.1-24.25Z" style="fill:#455a64"></path><path d="M404.16,436.59l-1.25,22.84s22.79,8.94,23,13.19l-44.37-.84.49-35.66Z" style="fill:#263238"></path><path d="M381.51,471.78l.19-3.59,42.47,2.14s2,.9,1.71,2.29Z" style="fill:#455a64"></path><path d="M403.63,459.22c0,.22-1.09.29-2.17,1s-1.67,1.58-1.87,1.49.15-1.34,1.47-2.13S403.68,459,403.63,459.22Z" style="fill:#e0e0e0"></path><path d="M408.25,461.23c.05.21-.9.56-1.65,1.47s-1,1.86-1.2,1.85-.33-1.24.62-2.34S408.25,461,408.25,461.23Z" style="fill:#e0e0e0"></path><path d="M410.79,466.85c-.2,0-.48-1,.1-2.22s1.6-1.63,1.69-1.45-.55.81-1,1.78S411,466.84,410.79,466.85Z" style="fill:#e0e0e0"></path><path d="M403.34,454c-.1.2-1.08-.12-2.31-.06s-2.19.43-2.3.24.83-.94,2.27-1S403.45,453.82,403.34,454Z" style="fill:#e0e0e0"></path><path d="M286.29,388.9s-11,23.4-3.06,39.73l9.68,16.55v4.76s9.92,25,21.08,25.69,23.45.14,26.91-16.63c2.48-12-2.37-29.2-2.37-29.2l-7.18-23.95Z" style="fill:#263238"></path><path d="M363.87,385.82s28.93-22.21,35.1-23.19,21.88,3.65,20.32,17.54c-.62,5.48-7.84,74-7.25,75.76s-34.81-.63-34.81-.63l4-39.44s-19.94,19.72-31.48,19.72c-15.81,0-28.35-7.91-12.83,5.41l-18.64-35.6Z" style="fill:#263238"></path><path d="M391.34,393.19c.06.06-.92,1.14-2.3,3.05A41.31,41.31,0,0,0,381.85,413c-.44,2.31-.55,3.77-.62,3.77a4.59,4.59,0,0,1,0-1,27.48,27.48,0,0,1,.31-2.79,36.95,36.95,0,0,1,7.25-16.88,24.46,24.46,0,0,1,1.81-2.14A5.31,5.31,0,0,1,391.34,393.19Z" style="fill:#455a64"></path><path d="M313.18,473.17l-.34-.11a8,8,0,0,1-.93-.43,13.74,13.74,0,0,1-3.05-2.22,28.72,28.72,0,0,1-3.61-4.27c-1.22-1.72-2.44-3.68-3.77-5.69A111.83,111.83,0,0,1,295,449.87c-.73-1.41-1.27-2.58-1.61-3.4a7.2,7.2,0,0,1-.49-1.29,8.47,8.47,0,0,1,.64,1.22c.4.79,1,1.93,1.74,3.32,1.5,2.79,3.86,6.47,6.55,10.49,1.34,2,2.55,4,3.74,5.69a32.1,32.1,0,0,0,3.49,4.29A18.06,18.06,0,0,0,313.18,473.17Z" style="fill:#455a64"></path><path d="M358.36,396.28a6.53,6.53,0,0,1-.89.85c-.6.52-1.45,1.3-2.46,2.29a55.27,55.27,0,0,0-7.07,8.49,54.5,54.5,0,0,0-5.19,9.75c-.54,1.31-.94,2.39-1.19,3.14a6.25,6.25,0,0,1-.45,1.15,6.35,6.35,0,0,1,.28-1.21c.21-.77.57-1.86,1.07-3.2a45.17,45.17,0,0,1,2-4.58,51.08,51.08,0,0,1,3.09-5.3,55.74,55.74,0,0,1,3.74-4.87,49.2,49.2,0,0,1,3.48-3.6c1-1,1.93-1.71,2.57-2.19A5.91,5.91,0,0,1,358.36,396.28Z" style="fill:#455a64"></path><path d="M327.23,409.11a9.68,9.68,0,0,1,.86,1.19c.54.77,1.27,1.92,2.13,3.37A87.77,87.77,0,0,1,340.08,438c.39,1.64.66,3,.82,3.9a9.82,9.82,0,0,1,.21,1.45,10.25,10.25,0,0,1-.38-1.42c-.2-.91-.53-2.23-1-3.85A101.17,101.17,0,0,0,330,413.82c-.82-1.46-1.51-2.63-2-3.43A9.7,9.7,0,0,1,327.23,409.11Z" style="fill:#455a64"></path><path d="M405.1,363.36s4.22,5.26,5.63,5.3a2,2,0,0,0,1.86-1.28,29.21,29.21,0,0,0,2.23,3.62,2.29,2.29,0,0,0,2,1.1l.31-.19.07-.5s2.87,2.07,2.08-.32-5.8-8.51-6.67-9.36-5.19-4-7.89-3.41a8.3,8.3,0,0,0-4.38.89c-2.14,1.16-5.38,3.14-5.38,3.14l-.82,2.82,7.8-2.43Z" style="fill:#ffbf9d"></path><path d="M389.47,365.38a2.22,2.22,0,0,0,.09,1.2c.18.37.74.83,1.12.68a8.6,8.6,0,0,0,2.3-1.48c.61-.17,1.25,0,1.84-.22a2.15,2.15,0,0,0,1.34-1.24,2,2,0,0,0-.74-2,5,5,0,0,0-2.07-.85,3.16,3.16,0,0,0-2.33.13,2.94,2.94,0,0,0-1.09,1.68A11.47,11.47,0,0,0,389.47,365.38Z" style="fill:#ffbf9d"></path><path d="M404.8,358.68l.41.13.47.19c.18.08.4.16.62.28a11.81,11.81,0,0,1,1.5.87,13.43,13.43,0,0,1,1.64,1.31,12.12,12.12,0,0,1,1.34,1.53,10.36,10.36,0,0,1,.85,1.37c.11.2.18.39.25.55a2.06,2.06,0,0,1,.16.42,1.91,1.91,0,0,1,.11.36s-.21-.51-.64-1.29a10,10,0,0,0-.87-1.34,12.69,12.69,0,0,0-1.33-1.5,15,15,0,0,0-1.6-1.3,12,12,0,0,0-1.47-.89C405.37,358.92,404.79,358.71,404.8,358.68Z" style="fill:#ff9a6c"></path><path d="M415,365.33a3.92,3.92,0,0,1,.62.93,12.61,12.61,0,0,1,1.06,2.49,12.35,12.35,0,0,1,.49,2.66,1,1,0,0,1-.09.49.51.51,0,0,1-.29.24c-.22.06-.32-.06-.3-.06a.41.41,0,0,0,.27,0,.4.4,0,0,0,.22-.21.85.85,0,0,0,0-.43,14.82,14.82,0,0,0-.54-2.61,15.32,15.32,0,0,0-1-2.48C415.22,365.71,415,365.34,415,365.33Z" style="fill:#ff9a6c"></path><path d="M394.08,361.6a.7.7,0,0,1,.27,0,2.22,2.22,0,0,1,.69.27,2.26,2.26,0,0,1,.79.76,2,2,0,0,1,.32,1.32,1.93,1.93,0,0,1-.58,1.23,2,2,0,0,1-1,.48,1.6,1.6,0,0,1-.74,0c-.17,0-.26-.09-.25-.1a3.15,3.15,0,0,0,1,0,1.94,1.94,0,0,0,.9-.48A1.8,1.8,0,0,0,396,364a2,2,0,0,0-.28-1.2A2.53,2.53,0,0,0,395,362,5.28,5.28,0,0,0,394.08,361.6Z" style="fill:#ff9a6c"></path><path d="M325.36,252.41s9.37-2.61,9.69-3.19c1.56-2.84,19.07-5.9,19.07-5.9l8.22-5.5a7.2,7.2,0,0,1,3.25-1.22,2.33,2.33,0,0,1,2.22.59c.92,1.36-4.85,5.18-4.85,5.18l-5.3,4s1.45,2.28-.13,2.87-10.41,6.59-14,7.08-9.08,1.76-9.08,1.76L331,259.9Z" style="fill:#ffbf9d"></path><path d="M357.92,246.63s-.29-.21-.87-.44a5.29,5.29,0,0,0-2.58-.2c-1.1.14-2.35.64-3.87.9a18.2,18.2,0,0,1-4.9-.22,10.6,10.6,0,0,0-4.72.42,10.83,10.83,0,0,0-3.4,1.88,14.83,14.83,0,0,0-2.42,2.68,2.63,2.63,0,0,1,.44-.89,9.26,9.26,0,0,1,1.76-2,10.43,10.43,0,0,1,3.48-2,10.58,10.58,0,0,1,4.91-.48,19,19,0,0,0,4.79.26c1.44-.22,2.74-.69,3.89-.8a5,5,0,0,1,2.7.37A1.88,1.88,0,0,1,357.92,246.63Z" style="fill:#ff9a6c"></path><path d="M380.74,306.15l5.91,2.06-4.79,32.33h0A43.21,43.21,0,0,1,374.58,359l-14.86,11.81,2.75,16.38s-6.94,16.14-28.3,20.52c-20.41,4.19-41.73-16.31-47.88-18.83h0c4.77-12.16,17.77-29,17.77-29l12.66-45.27L342.06,289l15.5,8.77s4.72,12,11.27,13.78S380.74,306.15,380.74,306.15Z" style="fill:#455a64"></path><path d="M329.66,249.28s-37.79,12.31-43.72,14.5c-5.64,2.08-9.95,11.21-5.34,17.63,2.85,4,22.84,14.2,33.86,23.41,1.73,1.45,1.79,12.63,1.79,12.63l34.41-23.07s-6.29-6.4-13.94-9c-4.7-1.61-24.79-8.62-25.74-8.89l25-11Z" style="fill:#455a64"></path><path d="M365.65,366.88a2.61,2.61,0,0,1-.47.36l-1.39,1c-.61.42-1.35.93-2.25,1.47s-1.89,1.21-3.05,1.85-2.4,1.38-3.78,2.08-2.88,1.43-4.45,2.18a107.55,107.55,0,0,1-10.59,4.13,105.69,105.69,0,0,1-11,2.87c-1.72.32-3.34.65-4.88.85s-3,.41-4.29.54-2.5.22-3.55.3-1.95.11-2.69.12l-1.7,0a2.1,2.1,0,0,1-.59,0l.59-.06,1.7-.12c.73,0,1.63-.09,2.67-.2s2.23-.17,3.54-.36,2.73-.33,4.26-.59,3.15-.55,4.86-.88c3.4-.73,7.11-1.67,10.94-2.9s7.37-2.67,10.55-4.08c1.57-.73,3.08-1.41,4.45-2.14s2.65-1.38,3.8-2,2.17-1.26,3.07-1.79,1.67-1,2.28-1.41l1.44-.9A3.31,3.31,0,0,1,365.65,366.88Z" style="fill:#263238"></path><path d="M318.26,300.94a9.47,9.47,0,0,1-.08,1.47c-.09.94-.23,2.3-.43,4-.39,3.36-1,8-2,13.07s-2.2,9.6-3.13,12.85c-.47,1.63-.87,2.94-1.16,3.84a7.39,7.39,0,0,1-.5,1.38,8.89,8.89,0,0,1,.31-1.44l1-3.88c.85-3.27,2-7.79,3-12.85s1.64-9.67,2.13-13c.24-1.59.43-2.92.59-4A6.81,6.81,0,0,1,318.26,300.94Z" style="fill:#263238"></path><path d="M370.94,361.91a48.56,48.56,0,0,0,3.83-4.37,36.8,36.8,0,0,0,3.29-5.35c.54-1.05,1.05-2.19,1.53-3.38a23.21,23.21,0,0,0,1.23-3.78c1.27-5.34,2.19-10.24,2.79-13.79l.69-4.21a8.34,8.34,0,0,1,.3-1.53,9.52,9.52,0,0,1-.1,1.56c-.1,1-.28,2.45-.53,4.24-.51,3.57-1.37,8.49-2.64,13.85a25.16,25.16,0,0,1-1.26,3.85c-.5,1.2-1,2.35-1.58,3.41a33.7,33.7,0,0,1-3.43,5.36c-.54.72-1.11,1.32-1.58,1.86s-.93,1-1.31,1.3A8.75,8.75,0,0,1,370.94,361.91Z" style="fill:#263238"></path><g style="opacity:0.30000000000000004"><path d="M319.43,384.45a37.3,37.3,0,0,0,39.21-13.37,156.78,156.78,0,0,1-37.41,13"></path></g></g><g id="freepik--character-1--inject-11"><path d="M167.19,358.41l-6.14-92.85-2.5-19.38c-16.77,5.06-33.46,9.72-49.67,11.11l-.53,0a94.93,94.93,0,0,1-23.62-.82,99.52,99.52,0,0,1-10-2.38c-.36,2.62-.65,6.22-.8,9.41l0,0c-.08,2.19-.1,4.48,0,6.84.24,6.23,14.88,179,14.88,179l29.6,1.25L116.91,288.8l2.4.61s13.24,69.57,14.08,80.77c.76,10.08,11.3,83.48,11.3,83.48l27-.66Z" style="fill:#263238"></path><path d="M159.93,124.29l-23.25-11.37-3.28-5.06-30.49-3.53-4.57,8.25s-17.84,7.4-28,12.87l5.87,70L77.5,215l-7.23,39.16c-1.88,2.66-2,5.23,0,7.69,6.65,1.31,30,9,43,9,18.82,0,49.88-9,49.88-9L156,213.53l1.07-48.67Z" style="fill:#024522"></path><path d="M116,270.79a2.28,2.28,0,0,1,0-.38c0-.27,0-.64,0-1.1,0-1-.1-2.42-.17-4.24s-.13-4.09-.17-6.71-.1-5.59-.09-8.89c0-6.58.06-14.42.22-23.13s.5-18.27.86-28.32c.74-20.08,1.46-38.26,1.76-51.43.07-3.28.13-6.26.18-8.88s.09-4.87.1-6.71,0-3.24.06-4.24l0-1.1a1.88,1.88,0,0,1,0-.38,2.79,2.79,0,0,1,0,.38c0,.27,0,.64,0,1.1,0,1,0,2.43,0,4.24s0,4.1,0,6.71,0,5.6-.1,8.89c-.21,13.17-.87,31.36-1.61,51.44-.36,10-.67,19.61-.9,28.31s-.34,16.54-.34,23.12c0,3.3,0,6.27,0,8.89s0,4.87.08,6.71.06,3.24.07,4.24c0,.46,0,.83,0,1.1A2.79,2.79,0,0,1,116,270.79Z" style="fill:#263238"></path><path d="M77.46,210.21c-5.6,3.43-14.69,1-18.52-4.2-1.16-1.57-3.44-4.81-3.66-7.21-.86-9.63,2.3-27.27,2.47-34.74s1-20.9,2.41-25.57,5.87-10.08,10.73-13S81,152.77,81,152.77L84.42,191,85,202.82S80.85,208.13,77.46,210.21Z" style="fill:#024522"></path><path d="M71.71,143.34a8,8,0,0,1,.51,1.3c.29.85.7,2.09,1.18,3.63,1,3.07,2.22,7.33,3.47,12.08s2.27,9.08,2.95,12.22c.34,1.58.6,2.85.76,3.74a7.51,7.51,0,0,1,.21,1.38,6.36,6.36,0,0,1-.4-1.34c-.25-1-.56-2.21-.93-3.69-.77-3.13-1.84-7.44-3.09-12.18s-2.45-9-3.32-12.11c-.42-1.47-.76-2.7-1-3.67A6.92,6.92,0,0,1,71.71,143.34Z" style="fill:#263238"></path><path d="M102.66,181.51l43.24,6.32,3.52.62L157.6,210a6.09,6.09,0,0,1-2.43,1.27c-1,.08-23,.71-41-7.47s-26.6-12-26.37-12.57,8.24-9.5,8.24-9.5Z" style="fill:#ffbf9d"></path><path d="M171,135.42a30,30,0,0,0-10.54-11.13l-1.78.87c0,1.12-7.48,40.49-7.48,40.49l-2.5,20.5-2.8,1.68,9.95,25.26s2.24,1.88,7,1.88,9.58-11.86,9.58-16.63S175,142.85,171,135.42Z" style="fill:#024522"></path><path d="M69.65,196.21s-.24-.18-.56-.61a9.56,9.56,0,0,1-1.13-2,10.88,10.88,0,0,1,3.91-13.38,9.25,9.25,0,0,1,2-1.06,2.26,2.26,0,0,1,.8-.21,28.42,28.42,0,0,0-2.6,1.57,11.06,11.06,0,0,0-3.78,12.94A26.18,26.18,0,0,0,69.65,196.21Z" style="fill:#263238"></path><path d="M72.14,180.25c0,.09-1,.42-2.52,1.32a14.85,14.85,0,0,0-7.21,11c-.22,1.74-.1,2.84-.19,2.84s-.1-.26-.15-.76a11,11,0,0,1,0-2.12,14,14,0,0,1,7.38-11.28,11.11,11.11,0,0,1,1.95-.83A2.15,2.15,0,0,1,72.14,180.25Z" style="fill:#263238"></path><path d="M156.53,213.53a4.05,4.05,0,0,1-.29-.57c-.19-.43-.44-1-.74-1.68-.65-1.52-1.56-3.63-2.67-6.23l-3.92-9.32-2.31-5.55c-.2-.48-.41-1-.61-1.46l-.31-.74a.79.79,0,0,1,0-.55,1,1,0,0,1,.25-.44,4.58,4.58,0,0,1,1.42-1,16.64,16.64,0,0,1,1.57-.64l-.18.21.32-2.18c1.39-9.29,2.64-17.69,3.56-23.84.47-3,.85-5.44,1.13-7.2.14-.81.25-1.46.33-2a3.56,3.56,0,0,1,.16-.67,4.48,4.48,0,0,1-.05.7l-.24,2c-.24,1.77-.57,4.22-1,7.23-.88,6.15-2.08,14.55-3.4,23.83l-.32,2.18,0,.16-.16.05a7.82,7.82,0,0,0-2.76,1.46c-.15.19-.2.3-.13.48l.3.74c.21.49.41,1,.61,1.46.79,1.93,1.55,3.79,2.28,5.55,1.43,3.53,2.72,6.7,3.81,9.37l2.52,6.29c.27.71.49,1.27.66,1.71A3,3,0,0,1,156.53,213.53Z" style="fill:#263238"></path><path d="M137.21,112.92a2,2,0,0,1-.19.4q-.24.45-.63,1.14c-.56,1-1.39,2.4-2.5,4.16-.55.87-1.17,1.83-1.88,2.85l-2.32,3.22-2.6,3.63c-.94,1.27-1.82,2.59-3,4l-.17.21-.19-.24a55.92,55.92,0,0,1-4.56-7.32l.42,0-.54.63c-.88,1.06-1.71,2.14-2.47,3.22a15.06,15.06,0,0,0-1.83,3.34l-.13.37-.28-.26A83.92,83.92,0,0,1,102.55,119c-1.29-1.79-2.25-3.28-2.88-4.31-.32-.51-.55-.92-.71-1.2a1.83,1.83,0,0,1-.22-.43,2,2,0,0,1,.3.39l.77,1.15c.68,1,1.68,2.45,3,4.21a90.41,90.41,0,0,0,11.9,13.07l-.41.11a15.09,15.09,0,0,1,1.89-3.48c.76-1.11,1.6-2.19,2.49-3.26l.55-.65.24-.28.18.33a56.15,56.15,0,0,0,4.5,7.25l-.36,0c1-1.23,2-2.62,2.92-3.85l2.63-3.61,2.37-3.19c.72-1,1.35-1.94,1.92-2.8,1.14-1.73,2-3.13,2.62-4.08l.7-1.09A1.61,1.61,0,0,1,137.21,112.92Z" style="fill:#263238"></path><path d="M86.08,201.4a3.28,3.28,0,0,1,0,2.07,5.7,5.7,0,0,1-3.31,3.69,22.12,22.12,0,0,0-4.15,2.54,5.6,5.6,0,0,1-1.86.89,15,15,0,0,1,1.65-1.19,17.2,17.2,0,0,1,4.15-2.71,5.67,5.67,0,0,0,3.17-3.32A13.17,13.17,0,0,0,86.08,201.4Z" style="fill:#263238"></path><path d="M163.65,202.81a24.15,24.15,0,0,1-2.07-2.55c-1.24-1.59-3-3.77-5-6.1s-3.91-4.37-5.31-5.83a24.23,24.23,0,0,1-2.21-2.41,17.44,17.44,0,0,1,2.47,2.15c1.47,1.4,3.42,3.41,5.45,5.75s3.72,4.57,4.89,6.22A18.25,18.25,0,0,1,163.65,202.81Z" style="fill:#263238"></path><path d="M93.53,172.75s-6.6-13.35-8-14.72-10.38-5.71-12-4.75-.8,2.58.89,3.54,7.48,4.83,7.48,4.83L83.11,164s-3.9-2.94-6.32-3.36-11.42,1.84-11.42,1.84-2.5,3.94,3.38,3.21c0,0-5.47,1.37-5.47,1.85s.32,3.3,4.18,2.82l4.75.24,5.23,2.17s-7.81-1.61-9.74-1.12-3.62,1.85-1.21,3.05,7.08,1.69,7.33,1.86,4.58,2.57,4.58,2.57,6.68,12,8.45,12.15,9.17-9.5,9.17-9.5Z" style="fill:#ffbf9d"></path><path d="M82.67,169.55a23,23,0,0,0-6.85-3.24,23,23,0,0,0-7.56-.32,6.26,6.26,0,0,1,2.21-.53,15.35,15.35,0,0,1,5.48.35,15.51,15.51,0,0,1,5,2.24A6.47,6.47,0,0,1,82.67,169.55Z" style="fill:#ff9a6c"></path><path d="M86,166.67c-.12.09-.82-.59-1.77-1.31s-1.78-1.24-1.72-1.37,1,.18,2,.95S86.07,166.58,86,166.67Z" style="fill:#ff9a6c"></path><path d="M76,178.9a162.92,162.92,0,0,0,22.58-8.38A64.44,64.44,0,0,0,110.91,162l10.22,11.24s-32.41,25.82-37.21,29.54c0,0-12.64,1.4-13.63-11.81C69.62,182.16,76,178.9,76,178.9Z" style="fill:#ffbf9d"></path><path d="M110.91,162s-.15-5.88-.41-6.9a22.56,22.56,0,0,1,0-4.69c.06-.2,1.8-6.75,1.8-6.75s.19-1.28,2.82,1.22,1.29,6.68,1.29,6.68l.79,2.66s7.23-4.38,7.42-4.51,7.78-8.1,10-9.32a13,13,0,0,1,2.48-1.2,2,2,0,0,1,2.43,2.72,2.1,2.1,0,0,1-.29.53c-.68.94,3.3-3.58,4.82-5.32a3,3,0,0,1,2.1-1.05c.94,0,2.32.7,1.75,2.83,0,0,2.06-.44,1.29,1.94s-6.93,14.48-7.76,15.89-4.58,6.46-5.35,7-14.93,9.54-14.93,9.54l-9.67-3.89Z" style="fill:#ffbf9d"></path><path d="M128.74,154.71a6.4,6.4,0,0,1,1.31-2c.91-1.13,2.35-2.54,3.77-4.19s2.59-3.3,3.57-4.36a7.13,7.13,0,0,1,1.73-1.6,18.4,18.4,0,0,1-1.45,1.83c-.9,1.12-2,2.74-3.45,4.46s-2.92,3-3.89,4.1S128.81,154.75,128.74,154.71Z" style="fill:#ff9a6c"></path><path d="M147.88,138.9a17.32,17.32,0,0,1-1.84,3c-1.2,1.79-3,4.16-4.62,7a34.81,34.81,0,0,1-5.12,6.72c-.75.78-1.38,1.38-1.83,1.78s-.72.61-.75.58.89-1,2.31-2.61a41.59,41.59,0,0,0,4.94-6.72,65.23,65.23,0,0,1,4.77-7A32.5,32.5,0,0,1,147.88,138.9Z" style="fill:#ff9a6c"></path><path d="M96.85,171.31a18,18,0,0,1-2.9,1.47c-1.83.84-4.39,1.91-7.27,3s-5.53,1.92-7.47,2.45a17.07,17.07,0,0,1-3.18.7,24.92,24.92,0,0,1,3.08-1c1.9-.62,4.52-1.52,7.39-2.58s5.44-2.09,7.3-2.84A22.48,22.48,0,0,1,96.85,171.31Z" style="fill:#ff9a6c"></path><path d="M113.48,179.33a6.77,6.77,0,0,1-1,1c-.69.64-1.72,1.53-3,2.6-2.58,2.15-6.22,5-10.27,8.17l-10.39,8c-1.27,1-2.34,1.79-3.16,2.41a7.55,7.55,0,0,1-1.2.84,7.82,7.82,0,0,1,1.07-1c.71-.62,1.76-1.48,3.06-2.54,2.61-2.12,6.25-5,10.3-8.14l10.36-8,3.12-2.46A9.68,9.68,0,0,1,113.48,179.33Z" style="fill:#ff9a6c"></path><path d="M169,434.43l.51,23.9s24.47,7.51,25,11.92l-46.3,2.65-2.32-37.21Z" style="fill:#263238"></path><path d="M148.2,472.9l-.09-3.76L192.54,468s2.11.78,2,2.25Z" style="fill:#455a64"></path><path d="M170.25,458.05c0,.23-1.12.39-2.19,1.18s-1.61,1.78-1.82,1.7,0-1.4,1.36-2.34S170.29,457.84,170.25,458.05Z" style="fill:#fff"></path><path d="M175.22,459.78c.06.22-.89.66-1.61,1.66s-.87,2-1.1,2-.44-1.26.47-2.49S175.2,459.57,175.22,459.78Z" style="fill:#fff"></path><path d="M178.31,465.44c-.2.06-.58-1.06-.07-2.33s1.54-1.82,1.64-1.64-.51.88-.91,1.93S178.54,465.4,178.31,465.44Z" style="fill:#fff"></path><path d="M169.53,452.62c-.08.21-1.14,0-2.41.12s-2.25.62-2.38.43.79-1.05,2.29-1.22S169.63,452.43,169.53,452.62Z" style="fill:#fff"></path><path d="M91.79,431,93,460.33,86.9,483.75a3,3,0,0,0,2.51,3.69h0a3.23,3.23,0,0,0,2.75-.8c4.61-4.35,21.51-20.4,21.29-22.54-.24-2.48.91-31,.91-31Z" style="fill:#263238"></path><path d="M89.41,487.44l24-25.32,0,1.24a4.42,4.42,0,0,1-1.07,2.95c-1.92,2.2-7.34,8.19-20.12,20.33a3.22,3.22,0,0,1-2.84.8Z" style="fill:#455a64"></path><path d="M96.22,474.55c-.18.08-.89-1.45-2.73-2.26s-3.5-.42-3.55-.61.36-.3,1.08-.4a5.08,5.08,0,0,1,2.76.43,4.86,4.86,0,0,1,2.09,1.78C96.24,474.09,96.29,474.52,96.22,474.55Z" style="fill:#fff"></path><path d="M97.83,468.79c-.17.08-.89-1.45-2.73-2.26s-3.5-.43-3.54-.61.36-.3,1.07-.41a5.19,5.19,0,0,1,2.76.44,4.8,4.8,0,0,1,2.09,1.78C97.85,468.33,97.91,468.76,97.83,468.79Z" style="fill:#fff"></path><path d="M94.09,478.5c-.14.13-1.14-.82-2.74-1.23s-2.95-.16-3-.34,1.38-.79,3.19-.28S94.25,478.42,94.09,478.5Z" style="fill:#fff"></path><path d="M100.63,460.53c-.08.18-1.79-.48-4-.54s-3.94.48-4,.29,1.66-1,4-.93S100.72,460.39,100.63,460.53Z" style="fill:#fff"></path><path d="M102.42,86.75A89,89,0,0,1,97.18,72.4,30.88,30.88,0,0,1,97,57.27c.2-.74,2-5.8,2.8-5.8.55,0-.43,4.65-.11,5.1,3.07,4.28,4.31,9.67,4.39,14.94a69.78,69.78,0,0,1-1.62,15.24" style="fill:#263238"></path><path d="M142,62a22.86,22.86,0,0,0-23.63-20l-1.19,0c-12.72,1.27-18.74,12.79-17.12,25.47l4.68,42,14.53,14.76,14.13-13.82c-.31-3.59-.39-4.67-.36-4.67s12.18-2.42,11.82-14.68C144.7,85.14,143.35,73,142,62Z" style="fill:#ffbf9d"></path><path d="M133.05,105.74a29.64,29.64,0,0,1-16.15-4.06s4.22,9.06,16.4,7.45Z" style="fill:#ff9a6c"></path><path d="M138.2,73.24a1.75,1.75,0,0,1-1.61,1.84,1.68,1.68,0,0,1-1.87-1.51,1.75,1.75,0,0,1,1.61-1.83A1.66,1.66,0,0,1,138.2,73.24Z" style="fill:#263238"></path><path d="M139.11,68c-.21.24-1.57-.69-3.46-.6s-3.22,1.08-3.43.86.09-.52.68-1a4.85,4.85,0,0,1,2.74-1,4.6,4.6,0,0,1,2.76.77C139,67.44,139.21,67.85,139.11,68Z" style="fill:#263238"></path><path d="M122,74.14A1.75,1.75,0,0,1,120.37,76a1.68,1.68,0,0,1-1.87-1.5,1.76,1.76,0,0,1,1.62-1.84A1.68,1.68,0,0,1,122,74.14Z" style="fill:#263238"></path><path d="M121.61,69c-.21.23-1.57-.69-3.46-.61s-3.22,1.08-3.43.86.09-.52.68-1a4.78,4.78,0,0,1,2.74-1,4.68,4.68,0,0,1,2.76.76C121.5,68.48,121.71,68.88,121.61,69Z" style="fill:#263238"></path><path d="M128.54,82.89a12.08,12.08,0,0,1,3-.68c.48-.07.93-.19,1-.52a2.41,2.41,0,0,0-.38-1.41c-.5-1.14-1-2.35-1.57-3.6-2.19-5.14-3.8-9.36-3.59-9.45s2.15,4,4.34,9.14c.53,1.26,1,2.47,1.51,3.62a2.74,2.74,0,0,1,.33,1.88,1.19,1.19,0,0,1-.76.74,3.28,3.28,0,0,1-.81.14A12.44,12.44,0,0,1,128.54,82.89Z" style="fill:#263238"></path><path d="M120.87,59.94c-.91.56-6.74.56-4.08.39-2.1.14-3.82.73-4.08.26-.11-.23.2-.7.9-1.17a6.57,6.57,0,0,1,3.06-1,6.37,6.37,0,0,1,3.15.51C120.58,59.29,121,59.7,120.87,59.94Z" style="fill:#263238"></path><path d="M138.91,65c-.37.45-1.92.1-3.77.18s-3.38.48-3.77,0c-.17-.21,0-.65.71-1.09a6.28,6.28,0,0,1,6.08-.19C138.83,64.34,139.07,64.77,138.91,65Z" style="fill:#263238"></path><path d="M101.45,76.47c-.21-.08-8.52-2.14-7.91,6.23s8.89,6,8.89,5.78S101.45,76.47,101.45,76.47Z" style="fill:#ffbf9d"></path><path d="M99.64,85.5s-.14.11-.38.24a1.41,1.41,0,0,1-1.09.1c-.91-.26-1.75-1.6-1.9-3.11a4.89,4.89,0,0,1,.25-2.12,1.71,1.71,0,0,1,1-1.2.73.73,0,0,1,.88.34c.13.23.09.4.14.41s.17-.16.08-.5a1,1,0,0,0-.37-.5,1.14,1.14,0,0,0-.82-.15A2,2,0,0,0,96,80.42a5,5,0,0,0-.34,2.37c.18,1.68,1.16,3.2,2.4,3.46a1.57,1.57,0,0,0,1.31-.32C99.64,85.7,99.67,85.51,99.64,85.5Z" style="fill:#ff9a6c"></path><path d="M135.46,48.57c1.29-.86-3.13-4.91-6.58-6.14-5.22-1.87-13-2.64-17.53-1-5.45,2-9.86,5.2-12.24,10.51a32.94,32.94,0,0,0-2.31,17.1,10,10,0,0,0,1.6,5c1.32,1.75,3.65,2.73,3.77,5.29a3.53,3.53,0,0,0,1.07,2.48c1.67,1.5,3.41-.18,4.15-1.79,1.57-3.42,1.45-7.35,1.3-11.11a24.47,24.47,0,0,0-1.18-7.91c-.52-1.36-1.29-2.63-1.74-4a5.07,5.07,0,0,1,.25-4.23,6.19,6.19,0,0,1,.62-.74,8.77,8.77,0,0,1,8.52-2.36c4.85,1.28,13.09,3.11,15.06,1.34,2.83-2.55,3.43-4.11,3.43-4.11Z" style="fill:#263238"></path><path d="M129,87l-4.54-.81a1.85,1.85,0,0,0-1.07,0,1.39,1.39,0,0,0-.71,1,3.63,3.63,0,0,0,.7,3,6.22,6.22,0,0,0,2.49,1.89,3.45,3.45,0,0,0,2.65.33,2.79,2.79,0,0,0,1.53-1.72,13.55,13.55,0,0,0,.37-2.74.8.8,0,0,0-.68-.84Z" style="fill:#ff9a6c"></path><path d="M129,92.33s-.22.15-.66.25a4.79,4.79,0,0,1-1.92,0,5.14,5.14,0,0,1-2.56-1.32,5.28,5.28,0,0,1-1.57-3.14,2.17,2.17,0,0,1,.43-1.89,1.37,1.37,0,0,1,.94-.34,4.46,4.46,0,0,1,.85.08l2.75.48a12.73,12.73,0,0,1,2.51.56,11.87,11.87,0,0,1-2.57-.2l-2.76-.36c-.51-.08-1.07-.14-1.37.15a1.78,1.78,0,0,0-.27,1.45,5.1,5.1,0,0,0,1.4,2.87,4.91,4.91,0,0,0,2.3,1.3A8.12,8.12,0,0,0,129,92.33Z" style="fill:#263238"></path></g></svg>
